<svg xmlns="http://www.w3.org/2000/svg" version="1.1" viewBox="-5.0 -10.0 110.0 135.0">
 <path d="m50 12.5c-20.711 0-37.5 16.789-37.5 37.5 0 8.4336 2.7852 16.215 7.4844 22.48-1.6016-3.8438-2.4844-8.0586-2.4844-12.48 0-17.949 14.551-32.5 32.5-32.5s32.5 14.551 32.5 32.5c0 4.4219-0.88281 8.6367-2.4844 12.48 4.6992-6.2656 7.4844-14.047 7.4844-22.48 0-20.711-16.789-37.5-37.5-37.5zm42.5 37.5c0 23.473-19.027 42.5-42.5 42.5s-42.5-19.027-42.5-42.5 19.027-42.5 42.5-42.5 42.5 19.027 42.5 42.5zm-21.277 27.488c0.82812-2.3438 1.2773-4.8633 1.2773-7.4883 0-12.426-10.074-22.5-22.5-22.5s-22.5 10.074-22.5 22.5c0 2.625 0.44922 5.1445 1.2773 7.4883-3.9219-4.7539-6.2773-10.844-6.2773-17.488 0-15.188 12.312-27.5 27.5-27.5s27.5 12.312 27.5 27.5c0 6.6445-2.3555 12.734-6.2773 17.488zm-21.223 10.012c-9.6641 0-17.5-7.8359-17.5-17.5s7.8359-17.5 17.5-17.5 17.5 7.8359 17.5 17.5-7.8359 17.5-17.5 17.5z" fill-rule="evenodd"/>
</svg>